<mxfile host="Electron" agent="Mozilla/5.0 (Windows NT 10.0; Win64; x64) AppleWebKit/537.36 (KHTML, like Gecko) draw.io/24.7.17 Chrome/128.0.6613.36 Electron/32.0.1 Safari/537.36" version="24.7.17">
  <diagram name="ページ1" id="V4Icafn1jWGySppUkYe5">
    <mxGraphModel dx="1668" dy="1021" grid="1" gridSize="10" guides="1" tooltips="1" connect="1" arrows="1" fold="1" page="1" pageScale="1" pageWidth="827" pageHeight="1169" math="0" shadow="0">
      <root>
        <mxCell id="0" />
        <mxCell id="1" parent="0" />
        <mxCell id="FPBDmQEiYa-iAEai3WWW-33" value="" style="rounded=0;whiteSpace=wrap;html=1;fillColor=none;strokeColor=none;" parent="1" vertex="1">
          <mxGeometry x="56" y="264" width="379" height="396" as="geometry" />
        </mxCell>
        <mxCell id="FPBDmQEiYa-iAEai3WWW-1" value="Demux" style="shadow=0;dashed=0;align=center;html=1;strokeWidth=1;shape=mxgraph.electrical.abstract.mux2;operation=demux;whiteSpace=wrap;" parent="1" vertex="1">
          <mxGeometry x="300" y="280" width="80" height="120" as="geometry" />
        </mxCell>
        <mxCell id="FPBDmQEiYa-iAEai3WWW-3" value="DMux" style="text;html=1;align=center;verticalAlign=middle;whiteSpace=wrap;rounded=0;fillColor=default;" parent="1" vertex="1">
          <mxGeometry x="315" y="321" width="50" height="30" as="geometry" />
        </mxCell>
        <mxCell id="FPBDmQEiYa-iAEai3WWW-5" value="sel0" style="text;html=1;align=center;verticalAlign=middle;whiteSpace=wrap;rounded=0;fontSize=6;fillColor=default;" parent="1" vertex="1">
          <mxGeometry x="341" y="389" width="13" height="10" as="geometry" />
        </mxCell>
        <mxCell id="FPBDmQEiYa-iAEai3WWW-6" value="" style="endArrow=none;html=1;rounded=0;exitX=1;exitY=0.21666666666666667;exitDx=0;exitDy=3;exitPerimeter=0;" parent="1" source="FPBDmQEiYa-iAEai3WWW-1" edge="1">
          <mxGeometry width="50" height="50" relative="1" as="geometry">
            <mxPoint x="389" y="335" as="sourcePoint" />
            <mxPoint x="400" y="309" as="targetPoint" />
          </mxGeometry>
        </mxCell>
        <mxCell id="FPBDmQEiYa-iAEai3WWW-7" value="" style="endArrow=none;html=1;rounded=0;" parent="1" edge="1">
          <mxGeometry width="50" height="50" relative="1" as="geometry">
            <mxPoint x="380" y="361" as="sourcePoint" />
            <mxPoint x="400" y="361" as="targetPoint" />
          </mxGeometry>
        </mxCell>
        <mxCell id="FPBDmQEiYa-iAEai3WWW-9" value="a" style="text;html=1;align=center;verticalAlign=middle;whiteSpace=wrap;rounded=0;" parent="1" vertex="1">
          <mxGeometry x="404" y="303" width="16" height="10" as="geometry" />
        </mxCell>
        <mxCell id="FPBDmQEiYa-iAEai3WWW-19" value="Demux" style="shadow=0;dashed=0;align=center;html=1;strokeWidth=1;shape=mxgraph.electrical.abstract.mux2;operation=demux;whiteSpace=wrap;" parent="1" vertex="1">
          <mxGeometry x="103" y="381" width="80" height="120" as="geometry" />
        </mxCell>
        <mxCell id="FPBDmQEiYa-iAEai3WWW-20" value="DMux" style="text;html=1;align=center;verticalAlign=middle;whiteSpace=wrap;rounded=0;fillColor=default;" parent="1" vertex="1">
          <mxGeometry x="118" y="422" width="50" height="30" as="geometry" />
        </mxCell>
        <mxCell id="FPBDmQEiYa-iAEai3WWW-21" value="" style="endArrow=none;html=1;rounded=0;" parent="1" edge="1">
          <mxGeometry width="50" height="50" relative="1" as="geometry">
            <mxPoint x="82" y="436" as="sourcePoint" />
            <mxPoint x="103" y="436" as="targetPoint" />
          </mxGeometry>
        </mxCell>
        <mxCell id="FPBDmQEiYa-iAEai3WWW-22" value="sel" style="text;html=1;align=center;verticalAlign=middle;whiteSpace=wrap;rounded=0;fontSize=7;fillColor=default;" parent="1" vertex="1">
          <mxGeometry x="144" y="491" width="9" height="10" as="geometry" />
        </mxCell>
        <mxCell id="FPBDmQEiYa-iAEai3WWW-23" value="" style="endArrow=none;html=1;rounded=0;exitX=1;exitY=0.21666666666666667;exitDx=0;exitDy=3;exitPerimeter=0;entryX=0;entryY=0.4583333333333333;entryDx=0;entryDy=0;entryPerimeter=0;" parent="1" source="FPBDmQEiYa-iAEai3WWW-19" target="FPBDmQEiYa-iAEai3WWW-1" edge="1">
          <mxGeometry width="50" height="50" relative="1" as="geometry">
            <mxPoint x="192" y="436" as="sourcePoint" />
            <mxPoint x="274" y="360" as="targetPoint" />
            <Array as="points">
              <mxPoint x="214" y="410" />
              <mxPoint x="214" y="335" />
            </Array>
          </mxGeometry>
        </mxCell>
        <mxCell id="FPBDmQEiYa-iAEai3WWW-24" value="" style="endArrow=none;html=1;rounded=0;entryX=0;entryY=0.4583333333333333;entryDx=0;entryDy=0;entryPerimeter=0;" parent="1" target="cJDLkhdkhdW0kyCwwkIW-31" edge="1">
          <mxGeometry width="50" height="50" relative="1" as="geometry">
            <mxPoint x="183" y="462" as="sourcePoint" />
            <mxPoint x="274" y="515" as="targetPoint" />
            <Array as="points">
              <mxPoint x="214" y="462" />
              <mxPoint x="214" y="525" />
            </Array>
          </mxGeometry>
        </mxCell>
        <mxCell id="FPBDmQEiYa-iAEai3WWW-25" value="out1" style="text;html=1;align=center;verticalAlign=middle;whiteSpace=wrap;rounded=0;" parent="1" vertex="1">
          <mxGeometry x="183" y="386" width="20" height="19" as="geometry" />
        </mxCell>
        <mxCell id="FPBDmQEiYa-iAEai3WWW-26" value="out2" style="text;html=1;align=center;verticalAlign=middle;whiteSpace=wrap;rounded=0;" parent="1" vertex="1">
          <mxGeometry x="183" y="465" width="20" height="19" as="geometry" />
        </mxCell>
        <mxCell id="FPBDmQEiYa-iAEai3WWW-29" value="sel[1]" style="text;html=1;align=center;verticalAlign=middle;whiteSpace=wrap;rounded=0;" parent="1" vertex="1">
          <mxGeometry x="230" y="630" width="31" height="19" as="geometry" />
        </mxCell>
        <mxCell id="FPBDmQEiYa-iAEai3WWW-30" value="" style="endArrow=none;html=1;rounded=0;entryX=0.375;entryY=1;entryDx=10;entryDy=0;entryPerimeter=0;" parent="1" target="FPBDmQEiYa-iAEai3WWW-19" edge="1">
          <mxGeometry width="50" height="50" relative="1" as="geometry">
            <mxPoint x="143" y="629" as="sourcePoint" />
            <mxPoint x="143" y="520" as="targetPoint" />
          </mxGeometry>
        </mxCell>
        <mxCell id="FPBDmQEiYa-iAEai3WWW-31" value="sel[2]" style="text;html=1;align=center;verticalAlign=middle;whiteSpace=wrap;rounded=0;" parent="1" vertex="1">
          <mxGeometry x="129" y="630" width="31" height="19" as="geometry" />
        </mxCell>
        <mxCell id="FPBDmQEiYa-iAEai3WWW-32" value="in" style="text;html=1;align=center;verticalAlign=middle;whiteSpace=wrap;rounded=0;" parent="1" vertex="1">
          <mxGeometry x="60" y="426" width="20" height="19" as="geometry" />
        </mxCell>
        <mxCell id="cJDLkhdkhdW0kyCwwkIW-1" value="DMux4Way" style="text;html=1;align=center;verticalAlign=middle;whiteSpace=wrap;rounded=0;fontSize=9;fillColor=default;" vertex="1" parent="1">
          <mxGeometry x="314" y="320" width="48" height="30" as="geometry" />
        </mxCell>
        <mxCell id="cJDLkhdkhdW0kyCwwkIW-3" value="" style="endArrow=none;html=1;rounded=0;" edge="1" parent="1">
          <mxGeometry width="50" height="50" relative="1" as="geometry">
            <mxPoint x="370" y="327" as="sourcePoint" />
            <mxPoint x="400" y="327" as="targetPoint" />
          </mxGeometry>
        </mxCell>
        <mxCell id="cJDLkhdkhdW0kyCwwkIW-4" value="" style="endArrow=none;html=1;rounded=0;" edge="1" parent="1">
          <mxGeometry width="50" height="50" relative="1" as="geometry">
            <mxPoint x="370" y="343" as="sourcePoint" />
            <mxPoint x="400" y="343" as="targetPoint" />
          </mxGeometry>
        </mxCell>
        <mxCell id="cJDLkhdkhdW0kyCwwkIW-5" value="0" style="text;html=1;align=center;verticalAlign=middle;whiteSpace=wrap;rounded=0;fontSize=6;fillColor=default;" vertex="1" parent="1">
          <mxGeometry x="362" y="306" width="7" height="10" as="geometry" />
        </mxCell>
        <mxCell id="cJDLkhdkhdW0kyCwwkIW-7" value="1" style="text;html=1;align=center;verticalAlign=middle;whiteSpace=wrap;rounded=0;fontSize=6;fillColor=default;" vertex="1" parent="1">
          <mxGeometry x="362" y="322" width="7" height="10" as="geometry" />
        </mxCell>
        <mxCell id="cJDLkhdkhdW0kyCwwkIW-8" value="2" style="text;html=1;align=center;verticalAlign=middle;whiteSpace=wrap;rounded=0;fontSize=6;fillColor=default;" vertex="1" parent="1">
          <mxGeometry x="362" y="338" width="7" height="10" as="geometry" />
        </mxCell>
        <mxCell id="cJDLkhdkhdW0kyCwwkIW-9" value="3" style="text;html=1;align=center;verticalAlign=middle;whiteSpace=wrap;rounded=0;fontSize=6;fillColor=default;" vertex="1" parent="1">
          <mxGeometry x="362" y="356" width="7" height="10" as="geometry" />
        </mxCell>
        <mxCell id="cJDLkhdkhdW0kyCwwkIW-10" value="b" style="text;html=1;align=center;verticalAlign=middle;whiteSpace=wrap;rounded=0;" vertex="1" parent="1">
          <mxGeometry x="404" y="322" width="16" height="10" as="geometry" />
        </mxCell>
        <mxCell id="cJDLkhdkhdW0kyCwwkIW-11" value="c" style="text;html=1;align=center;verticalAlign=middle;whiteSpace=wrap;rounded=0;" vertex="1" parent="1">
          <mxGeometry x="404" y="338" width="16" height="10" as="geometry" />
        </mxCell>
        <mxCell id="cJDLkhdkhdW0kyCwwkIW-12" value="d" style="text;html=1;align=center;verticalAlign=middle;whiteSpace=wrap;rounded=0;" vertex="1" parent="1">
          <mxGeometry x="404" y="355" width="16" height="10" as="geometry" />
        </mxCell>
        <mxCell id="cJDLkhdkhdW0kyCwwkIW-29" value="" style="endArrow=none;html=1;rounded=0;" edge="1" parent="1">
          <mxGeometry width="50" height="50" relative="1" as="geometry">
            <mxPoint x="322" y="400" as="sourcePoint" />
            <mxPoint x="322" y="380" as="targetPoint" />
          </mxGeometry>
        </mxCell>
        <mxCell id="cJDLkhdkhdW0kyCwwkIW-30" value="sel1" style="text;html=1;align=center;verticalAlign=middle;whiteSpace=wrap;rounded=0;fontSize=6;fillColor=default;" vertex="1" parent="1">
          <mxGeometry x="324" y="389" width="13" height="10" as="geometry" />
        </mxCell>
        <mxCell id="cJDLkhdkhdW0kyCwwkIW-31" value="Demux" style="shadow=0;dashed=0;align=center;html=1;strokeWidth=1;shape=mxgraph.electrical.abstract.mux2;operation=demux;whiteSpace=wrap;" vertex="1" parent="1">
          <mxGeometry x="300" y="470" width="80" height="120" as="geometry" />
        </mxCell>
        <mxCell id="cJDLkhdkhdW0kyCwwkIW-32" value="DMux" style="text;html=1;align=center;verticalAlign=middle;whiteSpace=wrap;rounded=0;fillColor=default;" vertex="1" parent="1">
          <mxGeometry x="315" y="511" width="50" height="30" as="geometry" />
        </mxCell>
        <mxCell id="cJDLkhdkhdW0kyCwwkIW-33" value="sel0" style="text;html=1;align=center;verticalAlign=middle;whiteSpace=wrap;rounded=0;fontSize=6;fillColor=default;" vertex="1" parent="1">
          <mxGeometry x="341" y="579" width="13" height="10" as="geometry" />
        </mxCell>
        <mxCell id="cJDLkhdkhdW0kyCwwkIW-34" value="" style="endArrow=none;html=1;rounded=0;exitX=1;exitY=0.21666666666666667;exitDx=0;exitDy=3;exitPerimeter=0;" edge="1" source="cJDLkhdkhdW0kyCwwkIW-31" parent="1">
          <mxGeometry width="50" height="50" relative="1" as="geometry">
            <mxPoint x="389" y="525" as="sourcePoint" />
            <mxPoint x="400" y="499" as="targetPoint" />
          </mxGeometry>
        </mxCell>
        <mxCell id="cJDLkhdkhdW0kyCwwkIW-35" value="" style="endArrow=none;html=1;rounded=0;" edge="1" parent="1">
          <mxGeometry width="50" height="50" relative="1" as="geometry">
            <mxPoint x="380" y="551" as="sourcePoint" />
            <mxPoint x="400" y="551" as="targetPoint" />
          </mxGeometry>
        </mxCell>
        <mxCell id="cJDLkhdkhdW0kyCwwkIW-36" value="e" style="text;html=1;align=center;verticalAlign=middle;whiteSpace=wrap;rounded=0;" vertex="1" parent="1">
          <mxGeometry x="404" y="493" width="16" height="10" as="geometry" />
        </mxCell>
        <mxCell id="cJDLkhdkhdW0kyCwwkIW-37" value="DMux4Way" style="text;html=1;align=center;verticalAlign=middle;whiteSpace=wrap;rounded=0;fontSize=9;fillColor=default;" vertex="1" parent="1">
          <mxGeometry x="314" y="510" width="48" height="30" as="geometry" />
        </mxCell>
        <mxCell id="cJDLkhdkhdW0kyCwwkIW-38" value="" style="endArrow=none;html=1;rounded=0;" edge="1" parent="1">
          <mxGeometry width="50" height="50" relative="1" as="geometry">
            <mxPoint x="370" y="517" as="sourcePoint" />
            <mxPoint x="400" y="517" as="targetPoint" />
          </mxGeometry>
        </mxCell>
        <mxCell id="cJDLkhdkhdW0kyCwwkIW-39" value="" style="endArrow=none;html=1;rounded=0;" edge="1" parent="1">
          <mxGeometry width="50" height="50" relative="1" as="geometry">
            <mxPoint x="370" y="533" as="sourcePoint" />
            <mxPoint x="400" y="533" as="targetPoint" />
          </mxGeometry>
        </mxCell>
        <mxCell id="cJDLkhdkhdW0kyCwwkIW-40" value="0" style="text;html=1;align=center;verticalAlign=middle;whiteSpace=wrap;rounded=0;fontSize=6;fillColor=default;" vertex="1" parent="1">
          <mxGeometry x="360" y="496" width="9" height="12.86" as="geometry" />
        </mxCell>
        <mxCell id="cJDLkhdkhdW0kyCwwkIW-41" value="1" style="text;html=1;align=center;verticalAlign=middle;whiteSpace=wrap;rounded=0;fontSize=6;fillColor=default;" vertex="1" parent="1">
          <mxGeometry x="362" y="512" width="7" height="10" as="geometry" />
        </mxCell>
        <mxCell id="cJDLkhdkhdW0kyCwwkIW-42" value="2" style="text;html=1;align=center;verticalAlign=middle;whiteSpace=wrap;rounded=0;fontSize=6;fillColor=default;" vertex="1" parent="1">
          <mxGeometry x="362" y="528" width="7" height="10" as="geometry" />
        </mxCell>
        <mxCell id="cJDLkhdkhdW0kyCwwkIW-43" value="3" style="text;html=1;align=center;verticalAlign=middle;whiteSpace=wrap;rounded=0;fontSize=6;fillColor=default;" vertex="1" parent="1">
          <mxGeometry x="362" y="546" width="7" height="10" as="geometry" />
        </mxCell>
        <mxCell id="cJDLkhdkhdW0kyCwwkIW-44" value="f" style="text;html=1;align=center;verticalAlign=middle;whiteSpace=wrap;rounded=0;" vertex="1" parent="1">
          <mxGeometry x="404" y="512" width="16" height="10" as="geometry" />
        </mxCell>
        <mxCell id="cJDLkhdkhdW0kyCwwkIW-45" value="g" style="text;html=1;align=center;verticalAlign=middle;whiteSpace=wrap;rounded=0;" vertex="1" parent="1">
          <mxGeometry x="404" y="528" width="16" height="10" as="geometry" />
        </mxCell>
        <mxCell id="cJDLkhdkhdW0kyCwwkIW-46" value="h" style="text;html=1;align=center;verticalAlign=middle;whiteSpace=wrap;rounded=0;" vertex="1" parent="1">
          <mxGeometry x="404" y="545" width="16" height="10" as="geometry" />
        </mxCell>
        <mxCell id="cJDLkhdkhdW0kyCwwkIW-47" value="" style="endArrow=none;html=1;rounded=0;" edge="1" parent="1">
          <mxGeometry width="50" height="50" relative="1" as="geometry">
            <mxPoint x="322" y="590" as="sourcePoint" />
            <mxPoint x="322" y="570" as="targetPoint" />
          </mxGeometry>
        </mxCell>
        <mxCell id="cJDLkhdkhdW0kyCwwkIW-48" value="sel1" style="text;html=1;align=center;verticalAlign=middle;whiteSpace=wrap;rounded=0;fontSize=6;fillColor=default;" vertex="1" parent="1">
          <mxGeometry x="324" y="579" width="13" height="10" as="geometry" />
        </mxCell>
        <mxCell id="cJDLkhdkhdW0kyCwwkIW-49" value="sel[0]" style="text;html=1;align=center;verticalAlign=middle;whiteSpace=wrap;rounded=0;" vertex="1" parent="1">
          <mxGeometry x="270" y="630" width="31" height="19" as="geometry" />
        </mxCell>
        <mxCell id="cJDLkhdkhdW0kyCwwkIW-50" value="" style="endArrow=none;html=1;rounded=0;" edge="1" parent="1">
          <mxGeometry width="50" height="50" relative="1" as="geometry">
            <mxPoint x="250" y="630" as="sourcePoint" />
            <mxPoint x="322" y="400" as="targetPoint" />
            <Array as="points">
              <mxPoint x="250" y="410" />
              <mxPoint x="322" y="410" />
            </Array>
          </mxGeometry>
        </mxCell>
        <mxCell id="cJDLkhdkhdW0kyCwwkIW-51" value="" style="endArrow=none;html=1;rounded=0;" edge="1" parent="1">
          <mxGeometry width="50" height="50" relative="1" as="geometry">
            <mxPoint x="280" y="630" as="sourcePoint" />
            <mxPoint x="340" y="400" as="targetPoint" />
            <Array as="points">
              <mxPoint x="280" y="420" />
              <mxPoint x="340" y="420" />
            </Array>
          </mxGeometry>
        </mxCell>
        <mxCell id="cJDLkhdkhdW0kyCwwkIW-52" value="" style="endArrow=none;html=1;rounded=0;" edge="1" parent="1">
          <mxGeometry width="50" height="50" relative="1" as="geometry">
            <mxPoint x="250" y="600" as="sourcePoint" />
            <mxPoint x="322" y="590" as="targetPoint" />
            <Array as="points">
              <mxPoint x="322" y="600" />
            </Array>
          </mxGeometry>
        </mxCell>
        <mxCell id="cJDLkhdkhdW0kyCwwkIW-53" value="" style="endArrow=none;html=1;rounded=0;entryX=0.375;entryY=1;entryDx=10;entryDy=0;entryPerimeter=0;" edge="1" parent="1" target="cJDLkhdkhdW0kyCwwkIW-31">
          <mxGeometry width="50" height="50" relative="1" as="geometry">
            <mxPoint x="280" y="610" as="sourcePoint" />
            <mxPoint x="340" y="600" as="targetPoint" />
            <Array as="points">
              <mxPoint x="340" y="610" />
            </Array>
          </mxGeometry>
        </mxCell>
      </root>
    </mxGraphModel>
  </diagram>
</mxfile>
